<svg width="19" height="18" viewBox="0 0 19 18" fill="none" xmlns="http://www.w3.org/2000/svg">
<path d="M11.124 9.54102H7.87599C7.80495 9.54102 7.7346 9.55501 7.66896 9.5822C7.60332 9.60938 7.54368 9.64923 7.49345 9.69947C7.44321 9.74971 7.40336 9.80935 7.37617 9.87498C7.34899 9.94062 7.33499 10.011 7.33499 10.082V17.118C7.33499 17.1891 7.34899 17.2594 7.37617 17.325C7.40336 17.3907 7.44321 17.4503 7.49345 17.5006C7.54368 17.5508 7.60332 17.5906 7.66896 17.6178C7.7346 17.645 7.80495 17.659 7.87599 17.659H11.124C11.2675 17.659 11.4051 17.602 11.5065 17.5006C11.608 17.3991 11.665 17.2615 11.665 17.118V10.082C11.665 9.93853 11.608 9.80093 11.5065 9.69947C11.4051 9.59801 11.2675 9.54102 11.124 9.54102Z" fill="#1890FF"/>
<path d="M4.629 12.7889H1.381C1.23751 12.7889 1.09991 12.8459 0.998452 12.9474C0.896994 13.0489 0.839996 13.1865 0.839996 13.3299L0.839996 17.1189C0.839996 17.2624 0.896994 17.4 0.998452 17.5015C1.09991 17.6029 1.23751 17.6599 1.381 17.6599H4.629C4.77248 17.6599 4.91008 17.6029 5.01154 17.5015C5.113 17.4 5.17 17.2624 5.17 17.1189V13.3299C5.17 13.1865 5.113 13.0489 5.01154 12.9474C4.91008 12.8459 4.77248 12.7889 4.629 12.7889Z" fill="#1890FF"/>
<path d="M17.619 6.29395H14.371C14.2999 6.29395 14.2296 6.30794 14.164 6.33513C14.0983 6.36231 14.0387 6.40216 13.9884 6.4524C13.9382 6.50264 13.8984 6.56228 13.8712 6.62791C13.844 6.69355 13.83 6.7639 13.83 6.83495V17.1189C13.83 17.19 13.844 17.2603 13.8712 17.326C13.8984 17.3916 13.9382 17.4513 13.9884 17.5015C14.0387 17.5517 14.0983 17.5916 14.164 17.6188C14.2296 17.646 14.2999 17.6599 14.371 17.6599H17.619C17.7625 17.6599 17.9001 17.6029 18.0015 17.5015C18.103 17.4 18.16 17.2624 18.16 17.1189V6.83495C18.16 6.69146 18.103 6.55386 18.0015 6.4524C17.9001 6.35094 17.7625 6.29395 17.619 6.29395Z" fill="#1890FF"/>
<path d="M9.49999 6.83997C9.57115 6.84001 9.64163 6.82599 9.70736 6.7987C9.77309 6.77141 9.83277 6.7314 9.88299 6.68097L14.372 2.18797V4.66997H15.455V0.88097C15.455 0.809756 15.4409 0.739243 15.4136 0.673475C15.3863 0.607707 15.3463 0.547979 15.2958 0.497716C15.2454 0.447453 15.1855 0.407645 15.1196 0.380575C15.0538 0.353505 14.9832 0.339706 14.912 0.33997H11.124V1.42297H13.606L9.49999 5.52897L7.17699 3.20497C7.07553 3.10354 6.93795 3.04656 6.79449 3.04656C6.65103 3.04656 6.51344 3.10354 6.41199 3.20497L3.70499 5.91097L4.46999 6.67597L6.79399 4.35297L9.11799 6.67697C9.16775 6.72801 9.22713 6.76869 9.29269 6.79666C9.35825 6.82464 9.42871 6.83936 9.49999 6.83997Z" fill="#1890FF"/>
</svg>
