<svg width="18" height="17" viewBox="0 0 18 17" fill="none" xmlns="http://www.w3.org/2000/svg">
<path d="M4.485 8.43797V1.47097H13.537V8.43797L16.444 6.82297L14.544 5.70797V0.964966C14.544 0.832358 14.4913 0.705181 14.3976 0.611412C14.3038 0.517644 14.1766 0.464966 14.044 0.464966H3.982C3.84939 0.464966 3.72221 0.517644 3.62845 0.611412C3.53468 0.705181 3.482 0.832358 3.482 0.964966V5.70597L1.562 6.81497L4.485 8.43797Z" fill="#F5222D"/>
<path d="M9.255 11.9669C9.18043 12.0086 9.09643 12.0305 9.011 12.0305C8.92557 12.0305 8.84157 12.0086 8.767 11.9669L0.965 7.63293V16.0529C0.965 16.1855 1.01768 16.3127 1.11145 16.4065C1.20521 16.5003 1.33239 16.5529 1.465 16.5529H16.554C16.6866 16.5529 16.8138 16.5003 16.9076 16.4065C17.0013 16.3127 17.054 16.1855 17.054 16.0529V7.63293L9.255 11.9669Z" fill="#F5222D"/>
<path d="M7.502 7.71293L5.638 5.84893C5.59099 5.80243 5.55366 5.74706 5.52819 5.68604C5.50271 5.62502 5.4896 5.55955 5.4896 5.49343C5.4896 5.4273 5.50271 5.36183 5.52819 5.30081C5.55366 5.23979 5.59099 5.18442 5.638 5.13793L7.502 3.27393L8.213 3.98493L6.705 5.49393L8.214 7.00293L7.502 7.71293Z" fill="#F5222D"/>
<path d="M10.522 7.71298L9.811 7.00198L11.32 5.49298L9.808 3.98798L10.519 3.27698L12.383 5.13798C12.43 5.18448 12.4673 5.23984 12.4928 5.30086C12.5183 5.36188 12.5314 5.42735 12.5314 5.49348C12.5314 5.5596 12.5183 5.62507 12.4928 5.68609C12.4673 5.74712 12.43 5.80248 12.383 5.84898L10.522 7.71298Z" fill="#F5222D"/>
</svg>
