<svg width="126" height="25" viewBox="0 0 126 25" fill="none" xmlns="http://www.w3.org/2000/svg">
<path d="M33.7353 19.6867H31.1758V8.08356H33.7353V13.1236H42.2252V8.08356H44.7847V19.6867H42.2252V15.2993H33.7353V19.6867ZM52.0211 19.9768C50.3267 19.9768 48.9629 19.5356 47.9296 18.6532C46.896 17.7711 46.3794 16.6045 46.3794 15.1542C46.3794 13.7038 46.896 12.5374 47.9296 11.655C48.9629 10.7729 50.3267 10.3316 52.0211 10.3316C53.7273 10.3316 55.0972 10.7729 56.1308 11.655C57.1642 12.5374 57.681 13.7038 57.681 15.1542C57.681 16.6045 57.1642 17.7711 56.1308 18.6532C55.0972 19.5356 53.7273 19.9768 52.0211 19.9768ZM52.0211 17.9824C53.0063 17.9824 53.7995 17.7226 54.4006 17.2028C55.0012 16.6833 55.3018 16.0004 55.3018 15.1542C55.3018 14.2961 55.0012 13.6071 54.4006 13.0873C53.7995 12.5678 53.0063 12.3077 52.0211 12.3077C51.0477 12.3077 50.2606 12.5706 49.6598 13.0964C49.0589 13.6222 48.7586 14.3084 48.7586 15.1542C48.7586 16.0004 49.0589 16.6833 49.6598 17.2028C50.2606 17.7226 51.0477 17.9824 52.0211 17.9824ZM64.4642 19.9768C62.7698 19.9768 61.406 19.5356 60.3726 18.6532C59.339 17.7711 58.8225 16.6045 58.8225 15.1542C58.8225 13.7038 59.339 12.5374 60.3726 11.655C61.406 10.7729 62.7698 10.3316 64.4642 10.3316C66.1704 10.3316 67.5403 10.7729 68.5739 11.655C69.6072 12.5374 70.124 13.7038 70.124 15.1542C70.124 16.6045 69.6072 17.7711 68.5739 18.6532C67.5403 19.5356 66.1704 19.9768 64.4642 19.9768ZM64.4642 17.9824C65.4494 17.9824 66.2426 17.7226 66.8436 17.2028C67.4443 16.6833 67.7449 16.0004 67.7449 15.1542C67.7449 14.2961 67.4443 13.6071 66.8436 13.0873C66.2426 12.5678 65.4494 12.3077 64.4642 12.3077C63.4908 12.3077 62.7036 12.5706 62.1029 13.0964C61.502 13.6222 61.2016 14.3084 61.2016 15.1542C61.2016 16.0004 61.502 16.6833 62.1029 17.2028C62.7036 17.7226 63.4908 17.9824 64.4642 17.9824ZM74.8525 19.8678C73.7446 19.8678 73.1121 19.3576 72.7709 18.8932L72.7512 18.866C72.4209 18.4033 72.1587 17.7999 72.1491 16.4977L72.1488 12.489H70.851V10.6217H72.5093V8.08356H74.7083V10.6217H77.3038V12.489H74.7083V15.8793C74.6893 16.8922 74.8503 17.2615 75.0947 17.507C75.5237 17.9377 76.8335 17.6458 77.3038 17.344V19.3087C76.7555 19.6922 75.7656 19.8678 74.8525 19.8678ZM83.826 19.9768C82.2277 19.9768 80.6175 19.7411 78.9953 19.2697V17.2028C80.3532 17.7226 81.8252 17.9824 83.4114 17.9824L83.5986 17.9817C84.6425 17.9741 85.3973 17.9018 85.8628 17.7648C86.3554 17.6198 86.6019 17.3602 86.6019 16.9853C86.6019 16.6349 86.3285 16.3902 85.7818 16.2511C85.2609 16.1188 84.6312 16.0329 83.8926 15.9937L83.781 15.9882C82.9937 15.952 82.2066 15.8825 81.4196 15.7797C80.6325 15.6771 79.9655 15.426 79.4188 15.0273C78.872 14.6284 78.5989 14.0664 78.5989 13.3412C78.5989 12.3503 79.0733 11.6006 80.0227 11.0931C80.9718 10.5854 82.2637 10.3316 83.898 10.3316C85.1837 10.3316 86.6857 10.5011 88.4043 10.8393V12.8335C86.9263 12.5194 85.5142 12.3621 84.1685 12.3621C82.1255 12.3621 81.1043 12.6766 81.1043 13.3049C81.1043 13.6194 81.3804 13.8398 81.9333 13.9667C82.4569 14.0869 83.083 14.1721 83.8117 14.2217L83.9342 14.2296C84.715 14.278 85.4992 14.3595 86.2864 14.4743C87.0734 14.5894 87.7432 14.8523 88.2962 15.263C88.8488 15.674 89.1253 16.2482 89.1253 16.9853C89.1253 18.0006 88.6567 18.753 87.7195 19.2425C86.7821 19.732 85.4843 19.9768 83.826 19.9768ZM98.8021 10.6217H101.362V19.6865H98.55L98.9105 15.9518H98.7662C98.3454 18.6351 96.8673 19.9766 94.332 19.9766C93.0343 19.9523 92.0849 19.5265 91.4841 18.6984C90.8939 17.8855 90.5936 16.5389 90.583 14.6588L90.5828 10.6217H93.1425V14.2477C93.1425 15.6136 93.3344 16.5863 93.7192 17.1665C94.1036 17.7467 94.7345 18.0368 95.6118 18.0368C96.5853 18.0368 97.3602 17.5898 97.937 16.6951C98.5008 15.8211 98.7889 14.6643 98.8017 13.2245L98.8021 10.6217ZM104.836 9.75048C104.343 9.75048 103.958 9.62673 103.682 9.37877C103.406 9.13127 103.268 8.76539 103.268 8.28189C103.268 7.79854 103.406 7.43611 103.682 7.19413C103.958 6.95246 104.343 6.83154 104.836 6.83154C105.34 6.83154 105.734 6.95246 106.016 7.19413C106.299 7.43611 106.44 7.79854 106.44 8.28189C106.44 9.26085 105.905 9.75048 104.836 9.75048ZM106.152 19.6865H103.592V10.6217H106.152V19.6865ZM120.574 19.9768C118.94 19.9768 117.627 19.5356 116.636 18.6532C115.644 17.7711 115.149 16.6045 115.149 15.1542C115.149 13.7038 115.644 12.5374 116.636 11.655C117.627 10.7729 118.94 10.3316 120.574 10.3316C122.184 10.3316 123.485 10.7096 124.477 11.4648C125.449 12.2058 125.956 13.1761 125.998 14.3762L126 14.4631C126 14.6236 126 15.9338 126 15.9338H117.6C117.744 16.6712 118.126 17.203 118.745 17.5292C119.364 17.8555 120.274 18.0187 121.476 18.0187L121.645 18.0176C123.116 17.999 123.811 17.7537 124.558 17.4748L124.629 17.4457C124.867 17.3458 125.529 17.0533 125.603 17.0215V19.0884C124.702 19.439 123.915 19.6747 123.242 19.7955C122.569 19.9162 121.68 19.9768 120.574 19.9768ZM117.546 14.6828L123.566 14.5378C123.53 13.7401 123.272 13.1689 122.791 12.8244C122.31 12.4799 121.572 12.3077 120.574 12.3077C119.613 12.3077 118.889 12.4922 118.402 12.8607C117.916 13.2296 117.63 13.8368 117.546 14.6828ZM111.861 19.8678C110.753 19.8678 110.12 19.3576 109.779 18.8932L109.759 18.866C109.429 18.4033 109.167 17.7999 109.157 16.4977L109.157 12.489H107.859V10.6217H109.517V8.08356H111.717V10.6217H114.312V12.489H111.717V15.8793C111.698 16.8922 111.858 17.2615 112.103 17.507C112.532 17.9377 113.842 17.6458 114.312 17.344V19.3087C113.764 19.6922 112.774 19.8678 111.861 19.8678Z" fill="#FF4C46"/>
<path d="M2.47497 0.206306C2.52909 0.0525008 2.69177 -0.031381 2.84578 0.010914L2.86771 0.0178206C2.86771 0.0178206 7.7621 1.88926 11.1762 3.19468C11.569 3.12962 11.959 3.09724 12.3427 3.1C13.7927 3.11011 15.1621 3.43753 16.5353 4.25339L24.5268 3.58794C24.6213 3.58371 24.7106 3.63169 24.7596 3.71312C24.8294 3.8292 24.7984 3.97829 24.6918 4.05713L24.6692 4.07207C24.57 4.13017 22.0671 5.5965 19.6768 6.9968C19.7575 7.08981 19.8383 7.18484 19.9193 7.28187C22.1938 10.0097 23.5774 13.9567 24.2382 16.239C24.6284 17.5868 24.375 19.0405 23.5521 20.1744C22.0669 22.219 18.8994 25.0024 12.6851 24.9581C5.90074 24.9108 2.39649 21.5159 0.712863 19.4294C-0.00456696 18.5331 -0.196107 17.3215 0.20953 16.2456L0.335473 15.9144C1.32901 13.3153 3.17989 8.80109 4.66248 7.12257C5.55504 6.11324 6.58431 5.24176 7.67174 4.57053L2.56895 0.548095C2.4694 0.465292 2.43186 0.328784 2.47497 0.206306Z" fill="#FF4C46"/>
<path d="M12.492 17.8752C12.5028 17.8471 12.5343 17.8332 12.5623 17.8442C13.6466 18.4703 14.9483 18.5855 16.1231 18.1622L16.1907 18.1372C16.2117 18.1273 16.2367 18.1328 16.2518 18.1504C16.2677 18.1691 16.2682 18.1959 16.2544 18.2149L14.7672 19.8621C14.6727 19.966 14.513 19.9754 14.4072 19.8832C13.8573 19.4078 12.9388 18.4148 12.4987 17.9272C12.4877 17.9122 12.4852 17.8926 12.492 17.8752ZM14.5566 9.43951C18.4024 6.74823 20.4873 9.08438 21.6571 11.6759C22.5022 13.5436 22.8015 17.0403 20.0581 17.5762C17.9566 17.9884 16.0147 15.8469 14.5786 13.8476C14.4312 13.6428 14.1466 13.5971 13.9431 13.7453C13.9047 13.7733 13.871 13.8071 13.843 13.8455L13.7845 13.9273C12.8014 15.3138 10.4572 19.083 6.98795 18.129C3.64034 17.2073 2.90481 13.4198 4.297 10.8015C6.35713 6.85363 9.36669 5.56728 14.5566 9.43951ZM14.01 14.857C14.1426 14.7287 14.3501 14.7268 14.4848 14.8485L14.5042 14.8674L16.342 16.9738C16.3518 16.985 16.3602 16.9974 16.367 17.0106C16.4145 17.1023 16.3791 17.2154 16.2879 17.2632C15.7347 17.5468 15.1251 17.7016 14.5043 17.716C13.6871 17.7092 12.8508 17.1637 12.5084 16.913L12.4944 16.9016C12.4228 16.8374 12.412 16.73 12.4665 16.6532L12.4791 16.6372L13.9893 14.8753L13.9918 14.876C13.9976 14.8694 14.0037 14.8631 14.01 14.857Z" fill="white"/>
<path d="M19.0201 11.767L19.0412 11.8016C19.4859 12.4959 19.2868 13.4213 18.5964 13.8686C17.9061 14.3159 16.986 14.1156 16.5413 13.4213C16.1088 12.7459 16.2849 11.8504 16.9333 11.3901L16.9691 11.3654C17.6148 10.9006 18.5128 11.0502 18.975 11.6997C18.9906 11.7217 19.0057 11.7441 19.0201 11.767ZM9.72344 10.9703C8.94956 11.2357 8.56479 12.0624 8.79538 12.8323C9.05919 13.6107 9.88111 13.9977 10.6466 13.7658C11.4205 13.5004 11.7989 12.6633 11.5746 11.9038C11.5767 11.8988 11.5717 11.8845 11.5622 11.8673C11.3241 11.1179 10.5638 10.7219 9.83995 10.9289C9.80671 10.9204 9.76509 10.9454 9.72344 10.9703Z" fill="#FF4C46"/>
</svg>
