<svg width="132" height="29" viewBox="0 0 132 29" fill="none" xmlns="http://www.w3.org/2000/svg">
<path d="M41.5316 13.0563C43.7045 13.4056 45.8397 14.9411 45.805 17.2136C45.805 18.6111 45.2197 19.9029 44.1507 20.8101C40.393 23.8165 33.741 21.9992 33.6367 16.9347H37.0844C37.2235 18.2265 38.2578 19.2746 39.6339 19.2394C41.0825 19.2394 42.3573 18.6463 42.3573 17.2136C42.3573 16.5501 41.9778 16.2007 41.3578 15.8865C39.0487 14.9441 35.6358 14.9793 34.222 12.6394C33.3615 11.0686 34.051 8.93711 35.4272 7.81851C36.5658 6.87607 38.0463 6.49146 39.6339 6.49146C42.4616 6.45623 45.495 8.30882 45.495 11.1714H41.9778C41.5287 9.56541 39.2892 9.0751 37.9449 9.95002C37.2553 10.4051 36.9801 11.2418 37.6349 11.7674C38.6692 12.6041 40.2221 12.8478 41.5316 13.0563ZM79.6906 10.2642C83.2745 10.1585 86.4122 13.6523 85.6531 17.3545H76.8282C77.6568 19.6592 80.6554 20.1495 82.0663 18.1942H85.4445C84.0307 22.4572 78.413 23.6081 75.3796 20.4989C71.4858 16.6205 74.4148 10.2289 79.6906 10.2642ZM82.5502 15.1878C81.5159 12.4632 77.8625 12.4632 76.8282 15.1878H82.5502ZM100.614 6.49146H103.717V22.2781H100.614V6.49146ZM55.8698 10.2642V16.095C55.6989 20.2523 50.0783 20.2523 49.9422 16.095V10.2612H46.8393V16.095C46.8393 16.7233 46.9436 17.3516 47.1145 17.9476C47.9083 20.4989 50.2522 22.2429 52.906 22.2429C55.5598 22.2429 57.9037 20.496 58.6975 17.9476C58.8685 17.3545 58.9728 16.7262 58.9728 16.095V10.2642H55.8698ZM99.2352 16.2711C99.2352 12.9535 96.5466 10.2642 93.2032 10.2642C89.8598 10.2642 87.1712 12.9535 87.1712 16.2711C87.1712 19.5888 89.8569 22.2781 93.2032 22.2781C94.2723 22.2781 95.2718 21.9992 96.1323 21.5089V22.2781H99.2352V16.2711ZM93.1684 19.3803C91.4098 19.3803 90.0308 17.9828 90.0308 16.2359C90.0308 14.5242 91.4446 13.0915 93.1684 13.0915C94.927 13.0915 96.3061 14.489 96.3061 16.2359C96.3061 17.9828 94.8894 19.3803 93.1684 19.3803ZM66.4186 10.2642C63.7647 10.2642 61.4209 12.0111 60.6271 14.5595C60.4561 15.1525 60.3518 15.7808 60.3518 16.4121V22.2458H63.4547V16.4121C63.5243 14.3158 64.9729 13.2677 66.4186 13.2677V10.2642ZM73.0358 10.2642C70.3819 10.2642 68.0381 12.0111 67.2443 14.5595C67.0733 15.1525 66.969 15.7808 66.969 16.4121V22.2458H70.0719V16.4121C70.1415 14.3158 71.5872 13.2677 73.0358 13.2677V10.2642Z" fill="black"/>
<path d="M114.092 7.08453C113.127 6.69991 112.058 6.49146 110.888 6.49146H105.096V22.2458H110.888C112.128 22.2458 113.232 22.0374 114.196 21.6527C117.16 20.4989 118.814 17.5307 118.78 14.351C118.814 11.1714 117.056 8.23542 114.092 7.08453ZM115.471 14.3833C115.503 16.8642 113.469 19.1366 110.989 19.1014H108.161V9.66817H110.989C113.472 9.63294 115.506 11.9377 115.471 14.3833ZM129.945 13.8255C132.394 11.9406 131.084 7.78328 128.427 6.8379C127.842 6.59422 127.222 6.48853 126.567 6.48853H120.156V22.2429C120.535 22.2429 127.428 22.2429 127.428 22.2429C128.668 22.2429 129.841 21.7878 130.702 20.9511C132.637 19.0662 132.428 15.223 129.945 13.8255ZM123.224 9.66817H126.463C127.292 9.66817 127.978 10.2612 127.946 11.1361C127.981 11.9758 127.292 12.6746 126.463 12.6394H123.224V9.66817ZM127.257 19.1014H123.259V15.6781H127.257C128.085 15.6428 128.775 16.5853 128.74 17.425C128.775 18.2265 128.085 19.1366 127.257 19.1014Z" fill="url(#paint0_linear_1330_47)"/>
<path d="M12.1682 7.5689L18.9274 11.3622V9.84133L12.1682 6.05688C11.1629 6.62059 6.30431 9.34222 5.40908 9.84133C6.24057 10.3081 14.9727 15.1965 20.2804 18.1677V19.6827C19.559 20.0878 12.1682 24.2246 12.1682 24.2246C10.146 23.0942 6.07543 20.8159 4.05608 19.6827V15.1407L12.1682 19.6827L13.5212 18.9252L2.70309 12.8712V20.4431L12.1682 25.7395C13.1011 25.2169 20.941 20.8277 21.6305 20.4401V17.4132L8.11217 9.84133L12.1682 7.5689ZM2.70309 8.32638V11.3563L16.2214 18.9281L12.1654 21.2006L5.40618 17.4073V18.9281L12.1654 22.7126C13.1707 22.1489 18.0293 19.4272 18.9245 18.9281C18.093 18.4613 9.36376 13.5729 4.05608 10.5988V9.08385C4.77749 8.67869 12.1682 4.54193 12.1682 4.54193C14.1876 5.67521 18.2582 7.95351 20.2804 9.08385V13.6258L12.1682 9.08385L10.8153 9.84133L21.6305 15.8982V8.32638L12.1682 3.02697C11.2325 3.55251 3.39552 7.94177 2.70309 8.32638ZM12.1682 0L0 6.81436V21.9551L12.1682 28.7695L24.3365 21.958V6.81436L12.1682 0ZM22.9806 21.1976L12.1682 27.2545L1.35299 21.1976V7.57184L12.1682 1.51495L22.9835 7.57184L22.9806 21.1976Z" fill="url(#paint1_linear_1330_47)"/>
<defs>
<linearGradient id="paint0_linear_1330_47" x1="110.813" y1="10.6192" x2="117.269" y2="21.6528" gradientUnits="userSpaceOnUse">
<stop stop-color="#FF00A0"/>
<stop offset="1" stop-color="#9600FF"/>
</linearGradient>
<linearGradient id="paint1_linear_1330_47" x1="7.55574" y1="3.36746" x2="19.5137" y2="23.8058" gradientUnits="userSpaceOnUse">
<stop stop-color="#FF00A0"/>
<stop offset="1" stop-color="#9600FF"/>
</linearGradient>
</defs>
</svg>
