<svg width="130" height="28" viewBox="0 0 130 28" fill="none" xmlns="http://www.w3.org/2000/svg">
<path d="M24.4146 7.8706C24.4158 9.0448 24.155 10.204 23.6508 11.2633C23.1467 12.3226 22.4121 13.2554 21.5013 13.9926L0.553333 2.06727C0.473333 2.02133 0.399167 1.96619 0.332083 1.90228C0.227083 1.7991 0.14375 1.67588 0.0866667 1.54012C0.0295833 1.40394 0 1.25774 0 1.11029C0 0.815799 0.116667 0.533423 0.324167 0.3254C0.531667 0.11696 0.813333 0 1.10708 0H16.5675C18.6487 0 20.6446 0.829166 22.1162 2.30537C23.5879 3.78116 24.4146 5.78327 24.4146 7.8706Z" fill="#18B4F4"/>
<path d="M24.4144 20.1142C24.4148 21.1481 24.2119 22.1719 23.8177 23.1268C23.4236 24.0821 22.8456 24.9501 22.1169 25.6811C21.3881 26.4121 20.5227 26.9919 19.5706 27.3875C18.6186 27.7835 17.5977 27.9869 16.5673 27.9869H1.10689C0.887728 27.9844 0.674395 27.9171 0.493561 27.7931C0.313145 27.669 0.172728 27.494 0.091478 27.2902C0.00981134 27.0863 -0.00977198 26.8628 0.0356447 26.6477C0.0806447 26.433 0.188145 26.2363 0.344811 26.0825C0.407311 26.0199 0.477311 25.9652 0.553145 25.9196L8.79731 21.2266L21.4994 13.9943C22.4098 14.7315 23.1444 15.6639 23.649 16.7228C24.1536 17.7817 24.4148 18.9409 24.4144 20.1142Z" fill="#FD6B3C"/>
<path d="M21.5014 13.9926L8.7976 21.2266L0.553854 25.9196C0.474687 25.9639 0.401354 26.0178 0.335938 26.0809C3.47927 22.8473 5.23677 18.5085 5.23302 13.9926C5.23885 9.47582 3.48177 5.13618 0.337604 1.90222C0.404688 1.96613 0.478854 2.02127 0.559271 2.06722L21.5014 13.9926Z" fill="#A97FF2"/>
<path d="M41.5839 10.2637C45.2055 10.2637 47.2518 13.1651 47.2518 16.6798C47.2518 20.194 45.2055 23.0733 41.5839 23.0733C39.7018 23.0733 38.2626 22.3185 37.4672 21.0378L37.1389 22.7847H34.873V5.92192H37.6776V12.1492C38.3601 11.1037 39.7018 10.2637 41.5839 10.2637ZM41.0189 20.5954C43.1355 20.5954 44.4526 18.8744 44.4526 16.6798C44.4526 14.4387 43.1355 12.7395 41.0189 12.7395C38.9026 12.7395 37.5835 14.435 37.5835 16.6798C37.5835 18.8761 38.8789 20.5954 41.0189 20.5954ZM57.1068 17.742V10.5485H59.9055V17.5996C59.9055 20.7454 58.4722 23.0733 54.5197 23.0733C50.5676 23.0733 49.1339 20.7379 49.1339 17.5996V10.5485H51.933V17.742C51.933 19.6518 52.826 20.5954 54.516 20.5954C56.2064 20.5954 57.1068 19.6518 57.1068 17.742ZM62.1455 6.77323C62.1364 6.52677 62.178 6.28116 62.268 6.05183C62.358 5.82251 62.4943 5.61407 62.6685 5.4403C62.8426 5.26653 63.051 5.13077 63.2801 5.04138C63.5093 4.9524 63.7547 4.91189 64.0001 4.92275C65.063 4.92275 65.8285 5.69051 65.8285 6.78242C65.8285 7.87432 65.063 8.59071 64.0001 8.59071C62.9372 8.59071 62.1455 7.83757 62.1455 6.77323ZM112.082 6.77323C112.073 6.52761 112.114 6.28283 112.203 6.05392C112.293 5.82543 112.428 5.61741 112.602 5.44405C112.775 5.27029 112.982 5.13411 113.21 5.0443C113.438 4.95491 113.683 4.91314 113.927 4.92275C114.99 4.92275 115.756 5.69051 115.756 6.78242C115.756 7.87432 114.99 8.59071 113.927 8.59071C112.864 8.59071 112.082 7.83757 112.082 6.77323ZM108.541 19.2299C109.604 19.2299 110.37 19.9977 110.37 21.0804C110.37 22.1631 109.604 22.8904 108.541 22.8904C107.478 22.8904 106.696 22.1464 106.696 21.0804C106.687 20.8348 106.728 20.59 106.817 20.3611C106.906 20.1322 107.042 19.9242 107.215 19.7504C107.388 19.5766 107.596 19.4405 107.824 19.3511C108.052 19.2613 108.296 19.2203 108.541 19.2299ZM107.586 10.4299L107.984 10.4541V13.0711C107.774 13.0415 107.562 13.0256 107.349 13.0227C105.373 13.0227 104.198 14.0611 104.198 16.4204V22.7905H101.399V10.5485H103.659L103.986 12.2457C104.432 11.4683 105.462 10.4299 107.586 10.4299ZM62.5885 10.5469H65.3876V22.7905H62.5885V10.5469ZM68.1868 22.7905V5.92192H70.9855V22.7943L68.1868 22.7905ZM82.5343 5.92192H85.3335V22.7943H83.073L82.7447 21.047C81.9697 22.3223 80.5305 23.0829 78.6301 23.0829C75.0301 23.0829 72.9839 20.1811 72.9839 16.689C72.9839 13.1969 75.0301 10.2728 78.6301 10.2728C80.5343 10.2728 81.8518 11.1204 82.5343 12.1584V5.92192ZM79.213 12.7432C77.0968 12.7432 75.7793 14.4421 75.7793 16.6835C75.7793 18.8782 77.0968 20.5992 79.213 20.5992C81.3293 20.5992 82.6468 18.8782 82.6468 16.6835C82.6505 14.435 81.3572 12.7395 79.2168 12.7395L79.213 12.7432ZM98.9985 19.4409C98.1293 21.6339 96.1051 23.0733 93.448 23.0733C89.758 23.0733 87.3593 20.3122 87.3593 16.6555C87.3593 13.0933 89.806 10.2637 93.428 10.2637C97.0501 10.2637 99.4264 13.0227 99.4264 16.6092C99.438 16.902 99.4126 17.1948 99.351 17.4809H90.1085C90.3189 19.4166 91.5664 20.666 93.5185 20.666C94.8597 20.666 95.9651 20.0052 96.4818 18.78L98.9985 19.4409ZM90.1547 15.4066H96.6476C96.4114 13.7077 95.2364 12.5511 93.4243 12.5511C91.6122 12.5511 90.4372 13.7315 90.1547 15.4066ZM112.525 10.5469H115.324V22.7905H112.525V10.5469ZM117.322 16.6798C117.322 13.2357 119.769 10.2637 123.649 10.2637C127.53 10.2637 130 13.2357 130 16.6798C130 20.1238 127.556 23.0733 123.649 23.0733C119.743 23.0733 117.322 20.1238 117.322 16.6798ZM123.649 20.5954C125.697 20.5954 127.201 19.039 127.201 16.6798C127.201 14.3201 125.697 12.7399 123.649 12.7399C121.601 12.7399 120.118 14.2959 120.118 16.6798C120.118 19.0633 121.627 20.5954 123.649 20.5954Z" fill="black"/>
</svg>
