<svg width="114" height="39" viewBox="0 0 114 39" fill="none" xmlns="http://www.w3.org/2000/svg">
<path d="M61.0491 18.5705H66.8242V13.9326H69.8792V25.8318H66.8242V21.1927H61.0491V25.8318H58.1001V13.9326H61.0479V18.5705H61.0491ZM81.5318 13.9326H76.8161C75.5097 13.9326 74.7143 14.1815 74.1129 14.7904C73.514 15.3956 73.2838 16.1643 73.2838 17.5212V22.2482C73.2838 23.605 73.5128 24.3713 74.1129 24.9789C74.7119 25.5866 75.5073 25.8367 76.8161 25.8367H81.5318C82.8382 25.8367 83.6336 25.5866 84.235 24.9789C84.8376 24.3737 85.0641 23.605 85.0641 22.2482V17.5212C85.0641 16.1643 84.8352 15.3981 84.235 14.7892C83.6324 14.1815 82.8382 13.9326 81.5318 13.9326ZM82.1139 22.3177C82.1139 23.0132 81.8849 23.2084 81.0546 23.2084H77.2933C76.4642 23.2084 76.2328 23.0132 76.2328 22.3177V17.4467C76.2328 16.75 76.4642 16.5548 77.2933 16.5548H81.0546C81.9042 16.5548 82.1151 16.7317 82.1151 17.4455V22.3177H82.1139ZM92.3722 18.6938H96.5914C97.8978 18.6938 98.7101 18.9439 99.2945 19.5516C99.8236 20.0884 100.124 20.9609 100.124 21.9065V22.6215C100.124 23.5684 99.8224 24.4225 99.2945 24.9765C98.7101 25.5841 97.9147 25.8343 96.5914 25.8343H88.5398V23.2109H96.0973C96.9264 23.2109 97.1578 23.0157 97.1578 22.3202V21.9639C97.1578 21.2671 96.9264 21.0719 96.0973 21.0719H91.8793C90.5693 21.0719 89.7582 20.8193 89.1761 20.2141C88.647 19.6772 88.3458 18.806 88.3458 17.8592V17.1454C88.3458 16.1985 88.6446 15.3431 89.1761 14.7904C89.7606 14.1815 90.5524 13.9326 91.8781 13.9326H99.5103V16.5548H92.3722C91.543 16.5548 91.3128 16.75 91.3128 17.4455V17.8018C91.3128 18.4998 91.543 18.695 92.3734 18.695L92.3722 18.6938ZM101.993 16.5548V13.9314H114V16.5548H109.48V25.8318H106.53V16.5548H101.992H101.993Z" fill="#21324B"/>
<path d="M51.0439 13.8387H46.3282C45.0218 13.8387 44.2264 14.0877 43.625 14.6965C43.0261 15.3017 42.7959 16.0705 42.7959 17.4249V25.8295H45.7449V17.3529C45.7449 16.6574 45.9751 16.4621 46.8054 16.4621H50.5667C51.4151 16.4621 51.626 16.6403 51.626 17.3529V25.8307H54.5762V17.4261C54.5762 16.0692 54.3461 15.303 53.7459 14.6978C53.1469 14.0877 52.3527 13.8375 51.0439 13.8375V13.8387Z" fill="#0052CD"/>
<path d="M32.7897 8.36985L19.3487 0.526517C18.1369 -0.175506 16.6486 -0.175506 15.4368 0.526517C14.2302 1.23269 13.486 2.53564 13.4832 3.94669V4.97042L12.6071 4.45795C11.3953 3.75592 9.90696 3.75592 8.69516 4.45795C7.4869 5.1654 6.74246 6.47106 6.74161 7.88422V8.90673L5.86547 8.39548C4.65398 7.69392 3.16625 7.69392 1.95475 8.39548C0.747516 9.10174 0.0028112 10.4052 0 11.8169V36.3865C0.00183045 37.0987 0.404836 37.7476 1.03812 38.0578C1.6714 38.368 2.42398 38.2852 2.97672 37.8446L9.6412 32.5319L19.9211 38.5279C20.4916 38.8551 21.1898 38.8551 21.7602 38.5279C22.3266 38.196 22.6797 37.581 22.6797 36.9185V22.136C22.6754 19.7016 21.391 17.4538 19.3089 16.2364L15.9381 14.2694V3.95035C15.9394 3.42351 16.2178 2.93725 16.6687 2.67437C17.1197 2.4115 17.6748 2.41183 18.1255 2.67526L31.5665 10.5149C32.891 11.2897 33.7081 12.7195 33.7117 14.2682V32.6796C33.7117 33.2042 33.4321 33.6923 32.9826 33.9546L29.4213 36.0326V18.1996C29.4166 15.7657 28.1323 13.5185 26.0505 12.3013L17.776 7.47546V10.3343L24.8249 14.4464C26.1499 15.2206 26.9673 16.6507 26.9701 18.1996V37.1027C26.9701 37.7616 27.322 38.3802 27.8896 38.7121C28.4601 39.0391 29.1582 39.0391 29.7287 38.7121L34.2106 36.0973C35.4158 35.3932 36.1654 34.084 36.1654 32.6747V14.2633C36.1544 11.8311 34.8693 9.58748 32.7897 8.36985ZM18.0773 18.3802C19.4026 19.1547 20.2201 20.5854 20.2224 22.1347V35.8496L11.7117 30.8847L14.4437 28.7103C15.3867 27.9648 15.9366 26.8199 15.9333 25.6086V17.1332L18.0785 18.3815L18.0773 18.3802ZM13.482 15.6995V25.6037C13.482 26.0588 13.2783 26.4822 12.9264 26.7604L2.45007 35.1065V11.8132C2.45082 11.2864 2.72895 10.8 3.17979 10.5371C3.63063 10.2741 4.18575 10.2745 4.63621 10.5381L6.74161 11.7644V29.3228L9.19168 27.3705V7.88178C9.19218 7.35461 9.47048 6.86778 9.9217 6.60475C10.3729 6.34171 10.9285 6.34245 11.379 6.60669L13.482 7.83175V12.8369L11.0332 11.4069V14.2682L13.4844 15.6995H13.482Z" fill="#0052CD"/>
</svg>
