<svg width="138" height="35" viewBox="0 0 138 35" fill="none" xmlns="http://www.w3.org/2000/svg">
<path d="M49.003 10.4095C49.003 9.77335 48.9205 9.35849 48.8106 9.16488C48.7007 8.99894 48.426 8.88831 47.9864 8.88831C47.6567 8.88831 47.272 8.94362 46.8599 9.02659V26.2021H53.2067C53.5364 26.2021 53.7837 26.1467 53.9211 26.0361C54.031 25.9255 54.1134 25.6766 54.1134 25.317C54.1134 25.0958 54.086 24.8192 54.031 24.4873L49.003 24.5979V10.4095ZM66.0099 25.0128C66.1199 25.5659 66.2572 25.8978 66.4496 26.0638C66.6144 26.2297 66.9441 26.285 67.4112 26.285C67.9058 26.285 68.3179 26.2297 68.6201 26.0638L64.6362 8.88831H61.5039L60.4324 13.2029C59.718 16.107 59.0037 19.011 58.2893 21.8875C57.5749 24.7639 57.2452 26.2021 57.2727 26.2021H59.3883L60.1851 22.4959H65.4879L66.0099 25.0128ZM62.7678 10.6307H63.0975L65.1857 20.9747H60.5148L62.7678 10.6307ZM75.1024 10.3265V26.2021H77.2455V10.3818L80.1853 10.4095C80.5975 10.4371 80.8722 10.3818 81.0371 10.2712C81.2019 10.1606 81.2844 9.96696 81.2844 9.63507C81.2844 9.46912 81.2569 9.2202 81.2294 8.88831H72.2447C71.8051 8.88831 71.5304 8.94362 71.393 9.05425C71.2281 9.16488 71.1732 9.38614 71.1732 9.66272C71.1732 9.88398 71.2007 10.1606 71.2556 10.4371L75.1024 10.3265ZM88.397 18.126L92.8205 18.209C93.1502 18.209 93.37 18.1537 93.5074 18.0154C93.6448 17.8771 93.7272 17.6282 93.7272 17.2963C93.7272 17.0197 93.6998 16.7708 93.6723 16.5772H88.397V10.4648L93.5898 10.5201C93.9745 10.5201 94.2218 10.4648 94.3866 10.3542C94.524 10.2435 94.6064 10.0223 94.6064 9.69038C94.6064 9.49678 94.579 9.2202 94.524 8.88831H86.2538V24.5703C86.2538 25.317 86.3363 25.7872 86.5011 25.9531C86.666 26.1191 87.1605 26.2021 87.9848 26.2021H93.5624C93.947 26.2021 94.1943 26.1467 94.3317 26.0085C94.4416 25.8702 94.524 25.6212 94.524 25.2617C94.524 25.0957 94.4965 24.8192 94.4691 24.4873L88.397 24.5979V18.126ZM103.796 17.7111C103.109 17.7111 102.532 17.6558 102.065 17.5452V10.3818C102.505 10.3265 103.137 10.2989 103.906 10.2989C105.17 10.2989 106.049 10.5754 106.599 11.1286C107.121 11.6817 107.396 12.5668 107.396 13.839C107.396 15.3049 107.038 16.3836 106.324 17.1027C105.775 17.5175 104.95 17.7111 103.796 17.7111ZM99.9223 26.2021H102.065V19.2046C102.56 19.26 103 19.2876 103.439 19.2876C103.934 19.2876 104.401 19.26 104.785 19.177L107.121 25.2894C107.258 25.6766 107.451 25.9531 107.67 26.0914C107.89 26.2574 108.22 26.3127 108.66 26.3127C109.154 26.3127 109.594 26.2297 109.951 26.0361L106.544 18.5409C107.396 18.209 108.137 17.6005 108.769 16.6878C109.401 15.7751 109.731 14.7517 109.731 13.6454C109.731 10.4925 108.11 8.88831 104.868 8.88831H99.9223V26.2021ZM122.856 25.0128C122.966 25.5659 123.103 25.8978 123.295 26.0638C123.46 26.2297 123.79 26.285 124.257 26.285C124.752 26.285 125.164 26.2297 125.466 26.0638L121.482 8.88831H118.35L117.278 13.2029C116.564 16.107 115.849 19.011 115.135 21.8875C114.421 24.7639 114.091 26.2021 114.118 26.2021H116.234L117.031 22.4959H122.334L122.856 25.0128ZM119.614 10.6307H119.943L122.031 20.9747H117.361L119.614 10.6307ZM132.889 10.4095C132.889 9.77335 132.807 9.35849 132.697 9.16488C132.587 8.99894 132.312 8.88831 131.873 8.88831C131.543 8.88831 131.158 8.94362 130.746 9.02659V26.2021H137.093C137.423 26.2021 137.67 26.1467 137.808 26.0361C137.917 25.9255 138 25.6766 138 25.317C138 25.0958 137.972 24.8192 137.917 24.4873L132.889 24.5979V10.4095Z" fill="#006BFF"/>
<mask id="mask0_1330_55" style="mask-type:alpha" maskUnits="userSpaceOnUse" x="0" y="0" width="35" height="35">
<path d="M17.353 34.9361C26.9368 34.9361 34.7061 27.1154 34.7061 17.4681C34.7061 7.82072 26.9368 0 17.353 0C7.76922 0 0 7.82072 0 17.4681C0 27.1154 7.76922 34.9361 17.353 34.9361Z" fill="white"/>
</mask>
<g mask="url(#mask0_1330_55)">
<path d="M34.7061 34.9361V0H0V34.907L34.7061 34.9361Z" fill="url(#paint0_linear_1330_55)"/>
<path d="M-15.2534 16.5107L9.28748 -8.19282L9.41018 -8.0693L-15.1307 16.6343L-15.2534 16.5107Z" fill="#115EDE"/>
<path d="M-13.1675 18.6106L11.3734 -6.09297L11.4961 -5.96945L-13.0448 18.7341L-13.1675 18.6106Z" fill="#115EDE"/>
<path d="M-11.0815 20.7103L13.4594 -3.99324L13.5821 -3.86972L-10.9588 20.8338L-11.0815 20.7103Z" fill="#115EDE"/>
<path d="M-8.99561 22.8102L15.5453 -1.89338L15.668 -1.76986L-8.8729 22.9337L-8.99561 22.8102Z" fill="#115EDE"/>
<path d="M-6.90967 24.91L17.6312 0.206471L17.7539 0.329988L-6.78696 25.0336L-6.90967 24.91Z" fill="#115EDE"/>
<path d="M-4.82373 27.0098L19.7172 2.30621L19.8399 2.42972L-4.70103 27.1333L-4.82373 27.0098Z" fill="#115EDE"/>
<path d="M-2.73779 29.1095L21.8031 4.40594L21.9258 4.52945L-2.61509 29.233L-2.73779 29.1095Z" fill="#115EDE"/>
<path d="M-0.651855 31.2094L23.889 6.50579L24.0117 6.62931L-0.529151 31.3329L-0.651855 31.2094Z" fill="#115EDE"/>
<path d="M1.43408 33.3091L25.975 8.60552L26.0977 8.72904L1.55679 33.4326L1.43408 33.3091Z" fill="#115EDE"/>
<path d="M3.52002 35.4091L28.0609 10.7055L28.1836 10.829L3.64272 35.5326L3.52002 35.4091Z" fill="#115EDE"/>
<path d="M-16.5625 11.5702L-16.4398 11.4467L8.1011 36.1502L7.97839 36.2738L-16.5625 11.5702Z" fill="#115EDE"/>
<path d="M-14.4766 9.47021L-14.3539 9.3467L10.187 34.0503L10.0643 34.1738L-14.4766 9.47021Z" fill="#115EDE"/>
<path d="M-12.3906 7.37048L-12.2679 7.24697L12.273 31.9505L12.1503 32.074L-12.3906 7.37048Z" fill="#115EDE"/>
<path d="M-10.3047 5.27063L-10.182 5.14711L14.3589 29.8507L14.2362 29.9742L-10.3047 5.27063Z" fill="#115EDE"/>
<path d="M-8.21875 3.17078L-8.09605 3.04726L16.4448 27.7508L16.3221 27.8743L-8.21875 3.17078Z" fill="#115EDE"/>
<path d="M-6.13281 1.07104L-6.01011 0.947526L18.5308 25.6511L18.4081 25.7746L-6.13281 1.07104Z" fill="#115EDE"/>
<path d="M-4.04688 -1.02869L-3.92417 -1.15221L20.6167 23.5514L20.494 23.6749L-4.04688 -1.02869Z" fill="#115EDE"/>
<path d="M-1.96045 -3.12854L-1.83774 -3.25206L22.7032 21.4515L22.5804 21.575L-1.96045 -3.12854Z" fill="#115EDE"/>
<path d="M0.125488 -5.22839L0.248193 -5.35191L24.7891 19.3517L24.6664 19.4752L0.125488 -5.22839Z" fill="#115EDE"/>
<path d="M2.21143 -7.32825L2.33413 -7.45176L26.875 17.2518L26.7523 17.3753L2.21143 -7.32825Z" fill="#115EDE"/>
<path d="M4.29736 -9.42798L4.42007 -9.5515L28.961 15.1521L28.8383 15.2756L4.29736 -9.42798Z" fill="#115EDE"/>
<path d="M34.706 34.9361V0H2.89209L28.9216 34.9361H34.706Z" fill="url(#paint1_linear_1330_55)"/>
<mask id="mask1_1330_55" style="mask-type:alpha" maskUnits="userSpaceOnUse" x="2" y="0" width="33" height="35">
<path d="M34.706 34.9361V0H2.89209L28.9216 34.9361H34.706Z" fill="white"/>
</mask>
<g mask="url(#mask1_1330_55)">
<path d="M-4.28906 5.50977L20.2518 -19.1938L20.3745 -19.0703L-4.16636 5.63328L-4.28906 5.50977Z" fill="#3582F7"/>
<path d="M16.5703 26.5078L41.1112 1.80425L41.2339 1.92777L16.693 26.6313L16.5703 26.5078Z" fill="#3582F7"/>
<path d="M-2.20312 7.60962L22.3378 -17.0939L22.4605 -16.9704L-2.08042 7.73314L-2.20312 7.60962Z" fill="#3582F7"/>
<path d="M18.6562 28.6077L43.1971 3.9041L43.3199 4.02762L18.779 28.7312L18.6562 28.6077Z" fill="#3582F7"/>
<path d="M-0.117188 9.70935L24.4237 -14.9942L24.5464 -14.8707L0.0055168 9.83287L-0.117188 9.70935Z" fill="#3582F7"/>
<path d="M20.7422 30.7075L45.2831 6.00396L45.4058 6.12748L20.8649 30.831L20.7422 30.7075Z" fill="#3582F7"/>
<path d="M1.96875 11.8092L26.5096 -12.8944L26.6323 -12.7708L2.09145 11.9327L1.96875 11.8092Z" fill="#3582F7"/>
<path d="M22.8286 32.8073L47.3695 8.10369L47.4922 8.22721L22.9513 32.9308L22.8286 32.8073Z" fill="#3582F7"/>
<path d="M4.05469 13.9091L28.5956 -10.7945L28.7183 -10.671L4.17739 14.0326L4.05469 13.9091Z" fill="#3582F7"/>
<path d="M24.9146 34.907L49.4554 10.2034L49.5782 10.3269L25.0373 35.0305L24.9146 34.907Z" fill="#3582F7"/>
<path d="M6.14062 16.0088L30.6815 -8.69477L30.8042 -8.57126L6.26333 16.1323L6.14062 16.0088Z" fill="#3582F7"/>
<path d="M27.0005 37.0068L51.5414 12.3033L51.6641 12.4268L27.1232 37.1304L27.0005 37.0068Z" fill="#3582F7"/>
<path d="M8.22656 18.1085L32.7675 -6.59504L32.8902 -6.47153L8.34927 18.232L8.22656 18.1085Z" fill="#3582F7"/>
<path d="M29.0864 39.1066L53.6273 14.403L53.75 14.5265L29.2091 39.2301L29.0864 39.1066Z" fill="#3582F7"/>
<path d="M10.3125 20.2084L34.8534 -4.49519L34.9761 -4.37167L10.4352 20.3319L10.3125 20.2084Z" fill="#3582F7"/>
<path d="M31.1724 41.2064L55.7133 16.5029L55.836 16.6264L31.2951 41.3299L31.1724 41.2064Z" fill="#3582F7"/>
<path d="M12.3984 22.3081L36.9393 -2.39545L37.062 -2.27194L12.5211 22.4316L12.3984 22.3081Z" fill="#3582F7"/>
<path d="M33.2583 43.3063L57.7992 18.6027L57.9219 18.7262L33.381 43.4298L33.2583 43.3063Z" fill="#3582F7"/>
<path d="M14.4844 24.408L39.0253 -0.295604L39.148 -0.172085L14.6071 24.5315L14.4844 24.408Z" fill="#3582F7"/>
<path d="M-5.59814 0.569092L-5.47544 0.445574L39.5571 45.7766L39.4344 45.9001L-5.59814 0.569092Z" fill="#3582F7"/>
<path d="M-3.51221 -1.53076L-3.3895 -1.65428L41.643 43.6768L41.5203 43.8003L-3.51221 -1.53076Z" fill="#3582F7"/>
<path d="M-1.42627 -3.63062L-1.30357 -3.75413L43.729 41.5769L43.6063 41.7004L-1.42627 -3.63062Z" fill="#3582F7"/>
<path d="M0.659668 -5.73035L0.782372 -5.85386L45.8149 39.4772L45.6922 39.6007L0.659668 -5.73035Z" fill="#3582F7"/>
<path d="M2.74561 -7.8302L2.86831 -7.95372L47.9009 37.3773L47.7782 37.5008L2.74561 -7.8302Z" fill="#3582F7"/>
<path d="M4.83154 -9.92993L4.95425 -10.0534L49.9868 35.2776L49.8641 35.4011L4.83154 -9.92993Z" fill="#3582F7"/>
<path d="M6.91748 -12.0298L7.04019 -12.1533L52.0727 33.1777L51.95 33.3013L6.91748 -12.0298Z" fill="#3582F7"/>
<path d="M9.00391 -14.1295L9.12661 -14.253L54.1592 31.078L54.0365 31.2015L9.00391 -14.1295Z" fill="#3582F7"/>
<path d="M11.0898 -16.2294L11.2125 -16.3529L56.2451 28.9782L56.1224 29.1017L11.0898 -16.2294Z" fill="#3582F7"/>
<path d="M13.1758 -18.3292L13.2985 -18.4527L58.331 26.8783L58.2083 27.0018L13.1758 -18.3292Z" fill="#3582F7"/>
<path d="M15.2617 -20.429L15.3844 -20.5525L60.417 24.7786L60.2943 24.9021L15.2617 -20.429Z" fill="#3582F7"/>
</g>
<path d="M25.2776 22.5048L0 29.6958V34.9362H34.7061V32.5489L25.2776 22.5048Z" fill="url(#paint2_linear_1330_55)" stroke="#0D57D9"/>
<mask id="mask2_1330_55" style="mask-type:alpha" maskUnits="userSpaceOnUse" x="0" y="22" width="35" height="13">
<path d="M25.2776 22.5048L0 29.6958V34.9362H34.7061V32.5489L25.2776 22.5048Z" fill="white"/>
</mask>
<g mask="url(#mask2_1330_55)">
<path d="M-12.5708 32.5527L53.9829 12.7079L54.0815 13.0429L-12.4722 32.8877L-12.5708 32.5527Z" fill="#1362DD"/>
<path d="M-10.895 38.2473L55.6587 18.4025L55.7573 18.7375L-10.7964 38.5823L-10.895 38.2473Z" fill="#1362DD"/>
<path d="M-9.21924 43.9419L57.3345 24.0971L57.4331 24.4321L-9.12067 44.2769L-9.21924 43.9419Z" fill="#1362DD"/>
<path d="M-7.54346 49.6365L59.0103 29.7917L59.1088 30.1267L-7.44489 49.9714L-7.54346 49.6365Z" fill="#1362DD"/>
<path d="M-10.1875 22.6113L-9.85473 22.5121L9.85938 89.507L9.52661 89.6062L-10.1875 22.6113Z" fill="#1362DD"/>
<path d="M-4.53027 20.9246L-4.19751 20.8253L15.5166 87.8202L15.1838 87.9194L-4.53027 20.9246Z" fill="#1362DD"/>
<path d="M1.12695 19.2378L1.45972 19.1386L21.1738 86.1334L20.8411 86.2327L1.12695 19.2378Z" fill="#1362DD"/>
<path d="M6.78369 17.5509L7.11646 17.4517L26.8306 84.4466L26.4978 84.5458L6.78369 17.5509Z" fill="#1362DD"/>
<path d="M12.4409 15.8641L12.7737 15.7649L32.4878 82.7598L32.155 82.859L12.4409 15.8641Z" fill="#1362DD"/>
<path d="M18.0981 14.1772L18.4309 14.078L38.145 81.0729L37.8123 81.1721L18.0981 14.1772Z" fill="#1362DD"/>
<path d="M23.7549 12.4905L24.0877 12.3913L43.8018 79.3861L43.469 79.4853L23.7549 12.4905Z" fill="#1362DD"/>
<path d="M29.4121 10.8037L29.7449 10.7045L49.459 77.6994L49.1262 77.7986L29.4121 10.8037Z" fill="#1362DD"/>
</g>
</g>
<path d="M13.304 6.172L11.7422 15.1389L17.4687 18.225L13.304 6.172Z" fill="#6AABD4"/>
<path d="M22.9641 15.1389L13.3042 6.172L17.4689 18.225L22.9641 15.1389Z" fill="#E4F6FE"/>
<path d="M22.9639 15.1389L17.4688 18.2249L28.4012 24.6881L22.9639 15.1389Z" fill="#A8CCE9"/>
<path d="M28.4012 24.6882L17.4688 18.225L22.7903 27.0755L28.4012 24.6882Z" fill="#D8E9F8"/>
<path d="M22.7903 27.0755L17.4687 18.225L6.36279 24.6882L22.7903 27.0755Z" fill="#84C1F2"/>
<path d="M6.36279 24.6881L17.4687 18.2249L11.7422 15.1389L6.36279 24.6881Z" fill="#AECEE9"/>
<defs>
<linearGradient id="paint0_linear_1330_55" x1="1.23807e-06" y1="25.5907" x2="13.1856" y2="12.8679" gradientUnits="userSpaceOnUse">
<stop stop-color="#0060FF"/>
<stop offset="1" stop-color="#1F66D6"/>
</linearGradient>
<linearGradient id="paint1_linear_1330_55" x1="13.9386" y1="-4.40488e-07" x2="34.7001" y2="29.9472" gradientUnits="userSpaceOnUse">
<stop stop-color="#1F6AE2"/>
<stop offset="1" stop-color="#2E7BED"/>
</linearGradient>
<linearGradient id="paint2_linear_1330_55" x1="26.5501" y1="28.5048" x2="1.2521" y2="34.555" gradientUnits="userSpaceOnUse">
<stop stop-color="#0D57D9"/>
<stop offset="1" stop-color="#0D57D9"/>
</linearGradient>
</defs>
</svg>
